<?xml version="1.0" standalone="no"?><!DOCTYPE svg PUBLIC "-//W3C//DTD SVG 1.1//EN" "http://www.w3.org/Graphics/SVG/1.1/DTD/svg11.dtd"><svg t="1700149189448" class="icon" viewBox="0 0 1024 1024" version="1.1" xmlns="http://www.w3.org/2000/svg" p-id="17451" xmlns:xlink="http://www.w3.org/1999/xlink" width="200" height="200"><path d="M452.832 404.528a240.784 240.784 0 0 1-11.248 32H128v512h768v-512H638.928c5.536-10.4 10.656-21.088 15.392-32H928v576H96v-576h356.832z m-28.608 64c-4.256 6.4-8.8 12.4-13.616 18.048-11.168 13.088-24.112 21.408-34.64 30.832-5.312 4.736-34.64 31.12-87.968 79.12l90.112 5.152c50.32 0 94.944-11.12 133.888-31.824v346.672H160v-448h264.224zM544 549.792c22.992-16.8 43.616-37.408 61.872-61.408 4.912-6.448 9.6-13.072 14.08-19.856H864v192H544v-110.736z m0 142.72l320 0.144v223.872H543.888l0.112-224z" fill="#5866D0" p-id="17452"></path><path d="M382.24 257.52h124.8c0 15.168-0.448 28.8-0.928 41.088-1.184 30.496-3.2 52.768-5.344 69.28-19.552 153.6-122.656 193.792-122.656 193.792 185.088 0 247.968-172.32 268.224-263.072 3.84-17.216 6.176-31.488 7.488-41.088h116.64c17.248 0 21.984-9.888 10.592-21.952l-109.792-116.064-74.176-78.432a28.32 28.32 0 0 0-41.6 0l-74.112 78.432-109.728 116.064c-11.392 12.16-6.656 21.952 10.592 21.952z" fill="#F17254" p-id="17453"></path></svg>