<?xml version="1.0" standalone="no"?><!DOCTYPE svg PUBLIC "-//W3C//DTD SVG 1.1//EN" "http://www.w3.org/Graphics/SVG/1.1/DTD/svg11.dtd"><svg t="1680881147234" class="icon" viewBox="0 0 1147 1024" version="1.1" xmlns="http://www.w3.org/2000/svg" p-id="35362" xmlns:xlink="http://www.w3.org/1999/xlink" width="224.0234375" height="200"><path d="M637.090909 372.363636c-18.909091 0-36.363636 7.272727-49.454545 20.363637l-88.727273 88.727272c-17.454545 17.454545-24.727273 43.636364-17.454546 68.363637 2.909091 10.181818 11.636364 16 20.363637 16 1.454545 0 4.363636 0 5.818182-1.454546 11.636364-2.909091 18.909091-16 14.545454-27.636363-2.909091-8.727273 0-18.909091 7.272727-26.181818l88.727273-88.727273c4.363636-4.363636 11.636364-7.272727 18.909091-7.272727s13.090909 2.909091 18.909091 7.272727c10.181818 10.181818 10.181818 27.636364 0 37.818182L592 523.636364c-8.727273 8.727273-8.727273 21.818182 0 30.545454 8.727273 8.727273 21.818182 8.727273 30.545455 0l64-64c27.636364-27.636364 27.636364-71.272727 0-98.909091-13.090909-11.636364-30.545455-18.909091-49.454546-18.909091z" fill="#00288F" opacity=".8" p-id="35363"></path><path d="M541.090909 520.727273c-11.636364 4.363636-16 17.454545-11.636364 29.090909 4.363636 10.181818 1.454545 21.818182-5.818181 29.090909l-88.727273 88.727273c-4.363636 4.363636-11.636364 7.272727-18.909091 7.272727s-13.090909-2.909091-18.909091-7.272727-7.272727-11.636364-7.272727-18.909091 2.909091-13.090909 7.272727-18.909091l68.363636-68.363637c8.727273-8.727273 8.727273-21.818182 0-30.545454-8.727273-8.727273-21.818182-8.727273-30.545454 0l-68.363636 68.363636c-13.090909 13.090909-20.363636 30.545455-20.363637 49.454546 0 18.909091 7.272727 36.363636 20.363637 49.454545 13.090909 13.090909 30.545455 20.363636 49.454545 20.363637 18.909091 0 36.363636-7.272727 49.454545-20.363637l88.727273-88.727273c20.363636-20.363636 26.181818-49.454545 16-75.636363-5.818182-13.090909-18.909091-17.454545-29.090909-13.090909zM946.909091 612.363636c-2.909091-2.909091-7.272727-2.909091-10.181818 0s-2.909091 7.272727 0 10.181819l151.272727 151.272727c1.454545 1.454545 2.909091 1.454545 5.818182 1.454545s4.363636 0 5.818182-1.454545c2.909091-2.909091 2.909091-7.272727 0-10.181818L946.909091 612.363636zM450.909091 138.181818c1.454545 1.454545 2.909091 1.454545 5.818182 1.454546s4.363636 0 5.818182-1.454546c2.909091-2.909091 2.909091-7.272727 0-10.181818L337.454545 2.909091c-2.909091-2.909091-7.272727-2.909091-10.181818 0s-2.909091 7.272727 0 10.181818L450.909091 138.181818zM1143.272727 446.545455L1045.818182 349.090909c-2.909091-2.909091-7.272727-2.909091-10.181818 0s-2.909091 7.272727 0 10.181818l97.454545 97.454546c1.454545 1.454545 2.909091 1.454545 5.818182 1.454545s4.363636 0 5.818182-1.454545c1.454545-2.909091 1.454545-7.272727-1.454546-10.181818zM948.363636 273.454545c1.454545 1.454545 2.909091 1.454545 5.818182 1.454546s4.363636 0 5.818182-1.454546c2.909091-2.909091 2.909091-7.272727 0-10.181818l-87.272727-87.272727c-2.909091-2.909091-7.272727-2.909091-10.181818 0s-2.909091 7.272727 0 10.181818l85.818181 87.272727z" fill="#00288F" opacity=".8" p-id="35364"></path><path d="M779.636364 702.545455c42.181818-52.363636 66.909091-117.818182 66.909091-189.09091 0-173.090909-145.454545-312.727273-324.363637-312.727272-69.818182 0-135.272727 21.818182-189.090909 59.636363L110.545455 39.272727c-2.909091-2.909091-7.272727-2.909091-10.181819 0-2.909091 2.909091-2.909091 7.272727 0 10.181818l219.636364 218.181819c-46.545455 34.909091-82.909091 82.909091-103.272727 136.727272l-106.181818-106.181818c-2.909091-2.909091-7.272727-2.909091-10.181819 0s-2.909091 7.272727 0 10.181818l112 112c-10.181818 29.090909-14.545455 61.090909-14.545454 93.090909 0 10.181818 0 21.818182 1.454545 32 17.454545 160 155.636364 280.727273 322.909091 280.727273 29.090909 0 58.181818-4.363636 85.818182-11.636363l98.909091 98.90909c1.454545 2.909091 2.909091 2.909091 5.818182 2.909091s4.363636 0 5.818182-1.454545c2.909091-2.909091 2.909091-7.272727 0-10.181818L625.454545 811.636364c58.181818-18.909091 107.636364-52.363636 146.909091-96L974.545455 916.363636h2.90909c1.454545 0 4.363636 0 5.818182-1.454545 2.909091-2.909091 2.909091-7.272727 0-10.181818l-203.636363-202.181818z m-257.454546 80c-144 0-264.727273-103.272727-279.272727-241.454546-1.454545-8.727273-1.454545-18.909091-1.454546-27.636364 0-148.363636 125.090909-269.090909 280.727273-269.090909 154.181818 0 280.727273 120.727273 280.727273 269.090909s-126.545455 269.090909-280.727273 269.09091zM13.090909 544c-2.909091-2.909091-7.272727-2.909091-10.181818 0s-2.909091 8.727273-1.454546 11.636364l68.363637 68.363636c1.454545 0 4.363636 1.454545 5.818182 1.454545s4.363636 0 5.818181-1.454545c2.909091-2.909091 2.909091-7.272727 0-10.181818L13.090909 544zM343.272727 875.636364c-2.909091-2.909091-7.272727-2.909091-10.181818 0s-2.909091 7.272727 0 10.181818l136.727273 136.727273c1.454545 1.454545 2.909091 1.454545 5.818182 1.454545s4.363636 0 5.818181-1.454545c2.909091-2.909091 2.909091-7.272727 0-10.181819l-138.181818-136.727272z" fill="#00288F" opacity=".8" p-id="35365"></path></svg>