<?xml version="1.0" standalone="no"?><!DOCTYPE svg PUBLIC "-//W3C//DTD SVG 1.1//EN" "http://www.w3.org/Graphics/SVG/1.1/DTD/svg11.dtd"><svg t="1680881182636" class="icon" viewBox="0 0 1024 1024" version="1.1" xmlns="http://www.w3.org/2000/svg" p-id="36439" xmlns:xlink="http://www.w3.org/1999/xlink" width="200" height="200"><path d="M533.973333 495.189333v289.578667a21.333333 21.333333 0 0 1-42.666666 0v-290.048L248.277333 370.645333a21.333333 21.333333 0 1 1 19.370667-37.973333l245.333333 125.226667 248.149334-116.266667a21.333333 21.333333 0 1 1 18.090666 38.613333l-245.248 114.944z m-364.885333 329.770667a9314.048 9314.048 0 0 1-36.736-23.765333 136.917333 136.917333 0 0 1-62.037333-107.392C66.133333 615.210667 64 554.112 64 510.378667c0-43.690667 2.133333-104.789333 6.314667-183.424a136.917333 136.917333 0 0 1 61.994666-107.349334C198.144 176.725333 250.026667 144.341333 288 122.410667 325.973333 100.437333 379.989333 71.68 450.005333 36.181333a136.917333 136.917333 0 0 1 123.989334 0c13.056 6.613333 25.514667 13.013333 37.418666 19.157334a21.333333 21.333333 0 0 1-19.541333 37.930666c-11.818667-6.101333-24.234667-12.458667-37.205333-19.029333a94.250667 94.250667 0 0 0-85.333334 0c-69.418667 35.2-122.752 63.616-160 85.12-37.248 21.504-88.490667 53.504-153.728 96a94.250667 94.250667 0 0 0-42.666666 73.898667c-4.181333 77.909333-6.272 138.325333-6.272 181.12 0 42.837333 2.090667 103.253333 6.272 181.12 1.621333 30.037333 17.493333 57.514667 42.666666 73.941333 10.026667 6.528 19.712 12.8 29.098667 18.816l7.978667 5.162667a85.333333 85.333333 0 1 1-23.637334 35.541333zM838.357333 185.173333c16.597333 10.581333 34.346667 22.058667 53.333334 34.389334a136.917333 136.917333 0 0 1 61.994666 107.392c4.224 78.592 6.314667 139.690667 6.314667 183.381333 0 43.733333-2.133333 104.832-6.314667 183.466667a136.917333 136.917333 0 0 1-61.994666 107.349333c-65.834667 42.88-117.674667 75.264-155.690667 97.194667-37.973333 21.930667-91.946667 50.645333-162.005333 86.186666a136.917333 136.917333 0 0 1-123.989334 0c-24.405333-12.373333-46.848-23.893333-67.328-34.645333a21.333333 21.333333 0 0 1 19.797334-37.802667c20.309333 10.666667 42.581333 22.101333 66.858666 34.432 26.794667 13.653333 58.538667 13.653333 85.333334 0 69.418667-35.242667 122.794667-63.616 160-85.12 37.205333-21.504 88.490667-53.504 153.728-96a94.250667 94.250667 0 0 0 42.666666-73.898666c4.181333-77.909333 6.272-138.325333 6.272-181.162667 0-42.794667-2.090667-103.210667-6.272-181.12a94.250667 94.250667 0 0 0-42.666666-73.898667c-19.498667-12.714667-37.717333-24.448-54.698667-35.242666a85.333333 85.333333 0 1 1 24.661333-34.901334z m-79.872 12.458667a42.666667 42.666667 0 1 0 0-85.333333 42.666667 42.666667 0 0 0 0 85.333333zM249.728 895.573333a42.666667 42.666667 0 1 0 0-85.333333 42.666667 42.666667 0 0 0 0 85.333333z" fill="#387CFF" p-id="36440"></path></svg>