<?xml version="1.0" standalone="no"?><!DOCTYPE svg PUBLIC "-//W3C//DTD SVG 1.1//EN" "http://www.w3.org/Graphics/SVG/1.1/DTD/svg11.dtd"><svg t="1700149032272" class="icon" viewBox="0 0 1024 1024" version="1.1" xmlns="http://www.w3.org/2000/svg" p-id="11870" xmlns:xlink="http://www.w3.org/1999/xlink" width="200" height="200"><path d="M515.584 972.8c-5.12 0-9.728-2.56-12.8-6.656L66.048 359.424c-3.584-4.608-4.096-11.264-1.024-16.384l147.456-283.136c2.56-5.12 8.192-8.704 13.824-8.704h578.56c5.632 0 11.264 3.072 13.824 8.704L966.144 343.04c2.56 5.12 2.048 11.776-1.024 16.384l-436.736 607.232c-3.072 3.584-7.68 6.144-12.8 6.144zM97.28 348.672l418.304 581.632 418.304-581.632-138.24-265.728H236.032L97.28 348.672z" fill="#D81234" p-id="11871"></path><path d="M952.32 365.568H78.848c-8.704 0-15.872-7.168-15.872-15.872s7.168-15.872 15.872-15.872H952.32c8.704 0 15.872 7.168 15.872 15.872s-7.168 15.872-15.872 15.872z" fill="#D81234" p-id="11872"></path><path d="M515.584 365.568c-4.096 0-7.68-1.536-10.752-4.608L215.552 78.336c-6.144-6.144-6.144-15.872 0-22.016 6.144-6.144 15.872-6.144 22.016 0l278.016 272.384L793.6 55.808c6.144-6.144 16.384-6.144 22.016 0 6.144 6.144 6.144 16.384 0 22.016l-289.28 283.136c-3.072 3.072-6.656 4.608-10.752 4.608z" fill="#D81234" p-id="11873"></path><path d="M515.584 972.8c-6.656 0-12.288-4.096-14.848-10.24L266.24 354.816c-3.072-8.192 1.024-17.408 9.216-20.48 8.192-3.072 17.408 1.024 20.48 9.216l220.16 570.368 224.256-569.856c3.072-8.192 12.288-12.288 20.48-8.704 8.192 3.072 12.288 12.288 8.704 20.48l-238.592 607.232c-3.072 6.144-8.704 9.728-15.36 9.728z" fill="#D81234" p-id="11874"></path></svg>