<?xml version="1.0" standalone="no"?><!DOCTYPE svg PUBLIC "-//W3C//DTD SVG 1.1//EN" "http://www.w3.org/Graphics/SVG/1.1/DTD/svg11.dtd"><svg t="1680880981494" class="icon" viewBox="0 0 1024 1024" version="1.1" xmlns="http://www.w3.org/2000/svg" p-id="33854" xmlns:xlink="http://www.w3.org/1999/xlink" width="200" height="200"><path d="M476.096 192c47.28 0 85.616 38.544 85.616 86.08v116.64l202.768 31.376 7.248 1.344c41.952 9.152 76.272 46.016 76.272 103.792V868l-0.016-0.016V976H390.512l-0.016-127.6-56.912-62.592-98.832-109.408-32.032-36.144-7.76-9.152c-44.48-55.92-7.2-115.168 76.16-115.168 38.656 0 64.688 17.376 103.936 56.976l15.664 15.776v-113.632l-0.16-196.96c-0.048-47.488 38.224-86.048 85.552-86.096z m308.24 675.984H454.144v44H784.32v-44zM476.08 256c-12.096 0-21.888 9.872-21.872 22.032l0.16 308.768-0.112 48.736-0.144 9.184-0.272 2.88-0.576 2.992-0.416 1.584-0.416 1.12-2.768 6.144-3.424 4.736-13.952 9.28-9.968 0.56v1.056c-21.6 0-40.064-9.024-59.776-25.6l-3.968-3.408a283.04 283.04 0 0 1-8.544-7.888l-6.272-6.128-17.216-17.376-3.28-3.2-6.192-5.92-5.776-5.232c-16.72-14.656-28.304-20.384-40.192-20.384l-11.712 0.064-6.752 0.192-3.6 0.224a60.32 60.32 0 0 0-1.536 0.144l-2.592 0.368c-4.192 0.768-5.264 2.128-4.272 4.512l0.752 1.392 1.12 1.6 1.44 1.856 2.624 3.152 17.52 20.016 39.344 43.936 132.88 146.592h348.032V531.232c0-24.896-11.232-37.6-25.28-41.04l-2.016-0.432-258.992-40V278.08c0-12.192-9.84-22.08-21.984-22.08z" fill="#17191C" p-id="33855"></path><path d="M334.592 75.2a198.496 198.496 0 0 1 282.816 0c54.432 54.992 72.192 135.68 48 207.824l-1.712 4.896-60.16-22.336a138.384 138.384 0 0 0-31.44-144.592 134.88 134.88 0 0 0-192.192 0 138.352 138.352 0 0 0-32.96 140.224l1.52 4.416L288.32 288c-26.72-73.376-9.408-156.544 46.272-212.8z" fill="#1062FE" p-id="33856"></path></svg>