<?xml version="1.0" standalone="no"?><!DOCTYPE svg PUBLIC "-//W3C//DTD SVG 1.1//EN" "http://www.w3.org/Graphics/SVG/1.1/DTD/svg11.dtd"><svg t="1706204767790" class="icon" viewBox="0 0 1024 1024" version="1.1" xmlns="http://www.w3.org/2000/svg" p-id="6837" xmlns:xlink="http://www.w3.org/1999/xlink" width="200" height="200"><path d="M512 85.3c-235.6 0-426.7 195.8-426.7 437.3 0 193.3 122.3 357.5 291.8 415.2 21.3 4.2 28.2-9.4 28.2-20.9v-81.5c-118.7 26.5-143.4-51.6-143.4-51.6-19.4-50.3-47.4-64-47.4-64-38.7-27.3 2.9-26.5 2.9-26.5 42.9 3 65.4 44.8 65.4 44.8 38.1 67 99.8 47.8 124.2 36.7 3.8-28.6 14.8-47.8 27.1-58.5-94.8-11.5-194.4-48.6-194.4-216.3 0-47.8 16.7-87 44-117.3-4.4-11.1-19-55.9 4.2-116 0 0 35.8-11.5 117.3 44.8 34-9.4 70.5-14.5 106.8-14.5s72.8 5.1 106.9 14.5c81.5-56.3 117.3-44.8 117.3-44.8 23.2 60.2 8.6 105 4.2 116 27.4 30.3 43.9 69.5 43.9 117.3 0 168.1-99.8 204.8-194.8 215.9 15.3 13.2 29.3 40.1 29.3 81v119.9c0 11.5 6.8 25.2 28.5 20.9 169.5-58 291.5-221.9 291.5-415.2C938.7 281.2 747.6 85.3 512 85.3z" fill="#040000" p-id="6838"></path></svg>