<?xml version="1.0" standalone="no"?><!DOCTYPE svg PUBLIC "-//W3C//DTD SVG 1.1//EN" "http://www.w3.org/Graphics/SVG/1.1/DTD/svg11.dtd"><svg t="1706204470907" class="icon" viewBox="0 0 1024 1024" version="1.1" xmlns="http://www.w3.org/2000/svg" p-id="4273" xmlns:xlink="http://www.w3.org/1999/xlink" width="200" height="200"><path d="M250.33955555 863.57105778c-136.51399111 0-247.56679111-111.16544-247.5667911-247.67943111 0-127.07953778 96.27534222-231.99402667 219.71740444-245.97504 40.12487111-124.01095111 155.95178667-209.48764445 287.69166222-209.48764445 166.63552 0 302.23928889 135.60376889 302.23928889 302.35306667 0 13.64081778-1.25041778 27.28049778-3.06858667 40.69262222 10.11598222-1.70439111 20.11932445-2.84103111 30.57664-2.84103111 100.02659555 0 181.41184 81.27146667 181.41184 181.52561778 0 99.91281778-81.27146667 181.52561778-181.41184 181.52561777l-589.58961778-0.11377777zM65.40288 615.89162667c0 101.95854222 82.97813333 184.93553778 184.93667555 184.93553778h589.47584c65.35850667 0 118.66794667-53.19566222 118.66794667-118.66794667 0-65.58606222-53.1968-118.66794667-118.66794667-118.66794667-17.16451555 0-33.53258667 3.52369778-48.87665777 10.56995556-12.16284445 30.80419555-29.32622222 59.56266667-51.03729778 85.25141333l-47.62624-40.8064c37.16892445-43.30723555 57.51466667-98.54976 57.51466667-155.61045333 0-132.19384889-107.52796445-239.60917333-239.60803556-239.60917334-98.09464889 0-185.05045333 59.67530667-221.53671111 148.44814222 25.91516445 4.32014222 52.28657778 13.18684445 79.90727111 26.7116089l109.11971556 55.12874666-28.52977778 55.92405334-108.21063111-54.78741334c-32.39480889-15.91296-62.17614222-23.64302222-90.59214223-23.64302222-101.95968 0.11377778-184.93667555 82.97813333-184.93667555 184.82289778z" p-id="4274"></path></svg>