<?xml version="1.0" standalone="no"?><!DOCTYPE svg PUBLIC "-//W3C//DTD SVG 1.1//EN" "http://www.w3.org/Graphics/SVG/1.1/DTD/svg11.dtd"><svg t="1700149137841" class="icon" viewBox="0 0 1024 1024" version="1.1" xmlns="http://www.w3.org/2000/svg" p-id="15964" xmlns:xlink="http://www.w3.org/1999/xlink" width="200" height="200"><path d="M489.24444445 512m-441.6 0a441.6 441.6 0 1 0 883.2 0 441.6 441.6 0 1 0-883.2 0Z" fill="#ffffff" p-id="15965"></path><path d="M713.04 550.814m-120.746 0a120.746 120.746 0 1 0 241.492 0 120.746 120.746 0 1 0-241.492 0Z" fill="#A4CFF2" p-id="15966"></path><path d="M592.294 550.814c0 34.118 14.154 64.926 36.906 86.884a120.464 120.464 0 0 0 43.642 8.134c66.686 0 120.746-54.06 120.746-120.746 0-34.118-14.156-64.926-36.906-86.884a120.464 120.464 0 0 0-43.642-8.134c-66.686 0-120.746 54.06-120.746 120.746z" fill="#D3E6F8" p-id="15967"></path><path d="M716.688 474.238a7.42 7.42 0 0 1 7.476 7.476v3.824c10.256 1.216 18.95 4.52 26.944 9.562 2.782 1.564 5.218 4.172 5.218 8.344 0 5.388-4.348 9.562-9.734 9.562-1.74 0-3.478-0.52-5.218-1.564-6.084-3.65-11.994-6.258-17.906-7.648v33.378c26.424 6.606 37.724 17.21 37.724 35.812 0 19.122-14.952 31.812-37.028 33.898v10.43c0 4.172-3.302 7.476-7.476 7.476s-7.648-3.302-7.648-7.476v-10.778c-13.038-1.39-25.032-6.084-35.638-13.56-2.956-1.912-4.694-4.694-4.694-8.344 0-5.388 4.172-9.562 9.56-9.562 2.086 0 4.172 0.696 5.738 1.912 8.17 5.912 16.166 9.91 25.728 11.648V554.38c-25.382-6.606-37.202-16.166-37.202-35.812 0-18.6 14.778-31.464 36.508-33.204v-3.65c-0.002-4.174 3.474-7.476 7.648-7.476z m-6.954 59.28v-30.77c-11.126 1.044-16.688 6.954-16.688 14.602-0.002 7.302 3.3 11.822 16.688 16.168z m13.732 24.164v31.64c11.126-1.216 17.21-6.78 17.21-15.124 0-7.652-3.824-12.344-17.21-16.516z" fill="#4C4372" p-id="15968"></path><path d="M713.04 679.92c-71.19 0-129.106-57.916-129.106-129.104 0-71.188 57.918-129.106 129.106-129.106s129.104 57.918 129.104 129.106c0 71.188-57.916 129.104-129.104 129.104z m0-241.586c-62.022 0-112.482 50.458-112.482 112.482s50.46 112.48 112.482 112.48 112.48-50.458 112.48-112.48-50.458-112.482-112.48-112.482z" fill="#4C4372" p-id="15969"></path><path d="M548.122 653.4v-61.064h-41.1a132.116 132.116 0 0 0-16.332-39.388l29.074-29.074-43.178-43.178-29.074 29.074a132.22 132.22 0 0 0-39.388-16.332v-41.1H347.06v41.1a132.116 132.116 0 0 0-39.388 16.332l-29.074-29.074-43.178 43.178 29.074 29.074a132.22 132.22 0 0 0-16.332 39.388h-41.1V653.4h41.1a132.168 132.168 0 0 0 16.332 39.388l-29.074 29.074 43.178 43.178 29.074-29.074a132.22 132.22 0 0 0 39.388 16.332v41.1h61.064v-41.1a132.116 132.116 0 0 0 39.388-16.332l29.074 29.074 43.178-43.178-29.074-29.074a132.22 132.22 0 0 0 16.332-39.388h41.1z m-170.532 42.808c-40.504 0-73.34-32.836-73.34-73.34 0-40.506 32.834-73.34 73.34-73.34 40.504 0 73.34 32.836 73.34 73.34 0 40.506-32.834 73.34-73.34 73.34z" fill="#FD919E" p-id="15970"></path><path d="M625.032 377.532v-36.72h-24.714a79.5 79.5 0 0 0-9.82-23.684l17.482-17.482-25.964-25.964-17.482 17.482a79.45 79.45 0 0 0-23.684-9.82v-24.712h-36.72v24.714a79.5 79.5 0 0 0-23.684 9.82l-17.482-17.482-25.964 25.964 17.482 17.482a79.45 79.45 0 0 0-9.82 23.684h-24.714v36.72h24.714a79.5 79.5 0 0 0 9.82 23.684l-17.482 17.482 25.964 25.964 17.482-17.482a79.45 79.45 0 0 0 23.684 9.82v24.714h36.72v-24.714a79.45 79.45 0 0 0 23.684-9.82l17.482 17.482 25.964-25.964-17.482-17.482a79.45 79.45 0 0 0 9.82-23.684l24.714-0.002z m-102.542 25.74c-24.356 0-44.1-19.744-44.1-44.1s19.744-44.1 44.1-44.1 44.1 19.744 44.1 44.1-19.744 44.1-44.1 44.1z" fill="#E8677D" p-id="15971"></path><path d="M408.124 801.712H347.06a8.312 8.312 0 0 1-8.312-8.312v-34.676a140.132 140.132 0 0 1-29.746-12.334l-24.53 24.53a8.308 8.308 0 0 1-11.752 0l-43.178-43.178a8.308 8.308 0 0 1 0-11.754l24.528-24.53a140.306 140.306 0 0 1-12.334-29.744h-34.678a8.312 8.312 0 0 1-8.312-8.312v-61.064a8.312 8.312 0 0 1 8.312-8.312h34.676a140.16 140.16 0 0 1 12.334-29.744l-24.528-24.53a8.308 8.308 0 0 1 0-11.754l43.178-43.178a8.308 8.308 0 0 1 11.752 0l24.53 24.53a140.132 140.132 0 0 1 29.746-12.334V452.34a8.312 8.312 0 0 1 8.312-8.312h61.064a8.312 8.312 0 0 1 8.312 8.312v34.676a140.16 140.16 0 0 1 29.744 12.334l24.53-24.53a8.306 8.306 0 0 1 11.752 0l43.178 43.178a8.31 8.31 0 0 1 0.002 11.754l-24.528 24.53a140.152 140.152 0 0 1 12.332 29.744h34.676a8.312 8.312 0 0 1 8.312 8.312v61.064a8.312 8.312 0 0 1-8.312 8.312h-34.676a140.17 140.17 0 0 1-12.332 29.744l24.528 24.53a8.31 8.31 0 0 1-0.002 11.754L482.46 770.92a8.308 8.308 0 0 1-11.752 0l-24.53-24.53a140.16 140.16 0 0 1-29.744 12.334V793.4a8.31 8.31 0 0 1-8.31 8.312z m-52.752-16.624h44.44V752.3a8.312 8.312 0 0 1 6.41-8.092 123.74 123.74 0 0 0 36.914-15.304 8.312 8.312 0 0 1 10.254 1.188l23.198 23.196 31.424-31.424-23.196-23.198a8.314 8.314 0 0 1-1.188-10.256 123.644 123.644 0 0 0 15.304-36.914 8.312 8.312 0 0 1 8.092-6.41h32.788v-44.44h-32.788a8.314 8.314 0 0 1-8.092-6.41 123.79 123.79 0 0 0-15.304-36.914 8.314 8.314 0 0 1 1.188-10.256l23.196-23.198-31.424-31.424-23.198 23.196a8.308 8.308 0 0 1-10.254 1.188 123.664 123.664 0 0 0-36.914-15.304 8.312 8.312 0 0 1-6.41-8.092v-32.788h-44.44v32.792a8.312 8.312 0 0 1-6.41 8.092 123.748 123.748 0 0 0-36.914 15.304 8.314 8.314 0 0 1-10.254-1.188l-23.198-23.196-31.424 31.424 23.196 23.198a8.31 8.31 0 0 1 1.188 10.256 123.64 123.64 0 0 0-15.306 36.914 8.312 8.312 0 0 1-8.092 6.41h-32.788v44.44h32.788a8.314 8.314 0 0 1 8.092 6.41 123.764 123.764 0 0 0 15.306 36.914 8.314 8.314 0 0 1-1.188 10.256l-23.196 23.198 31.424 31.424 23.198-23.196a8.308 8.308 0 0 1 10.254-1.188 123.664 123.664 0 0 0 36.914 15.304 8.312 8.312 0 0 1 6.41 8.092v32.784z m22.22-80.568c-45.022 0-81.652-36.63-81.652-81.652s36.63-81.652 81.652-81.652 81.65 36.63 81.65 81.652-36.628 81.652-81.65 81.652z m0-146.68c-35.858 0-65.028 29.172-65.028 65.028s29.172 65.028 65.028 65.028 65.026-29.172 65.026-65.028-29.172-65.028-65.026-65.028z" fill="#4C4372" p-id="15972"></path><path d="M540.85 470.026h-36.72a8.312 8.312 0 0 1-8.312-8.312v-18.388a87.414 87.414 0 0 1-13.97-5.794l-13.008 13.006a8.306 8.306 0 0 1-11.752 0l-25.964-25.964a8.306 8.306 0 0 1 0-11.756l13.006-13.006a87.49 87.49 0 0 1-5.794-13.97h-18.386a8.312 8.312 0 0 1-8.312-8.312v-36.72a8.312 8.312 0 0 1 8.312-8.312h18.386a87.674 87.674 0 0 1 5.794-13.97l-13.006-13.006a8.306 8.306 0 0 1 0-11.756l25.964-25.964a8.308 8.308 0 0 1 11.752 0l13.008 13.006a87.49 87.49 0 0 1 13.97-5.794v-18.384a8.312 8.312 0 0 1 8.312-8.312h36.72a8.312 8.312 0 0 1 8.312 8.312v18.388a87.414 87.414 0 0 1 13.97 5.794l13.008-13.006a8.308 8.308 0 0 1 11.752 0l25.964 25.964a8.306 8.306 0 0 1 0 11.756l-13.006 13.006a87.784 87.784 0 0 1 5.794 13.97h18.388a8.312 8.312 0 0 1 8.312 8.312v36.72a8.312 8.312 0 0 1-8.312 8.312h-18.388a87.598 87.598 0 0 1-5.794 13.97l13.006 13.006a8.306 8.306 0 0 1 0 11.756l-25.964 25.964a8.308 8.308 0 0 1-11.752 0l-13.008-13.006a87.49 87.49 0 0 1-13.97 5.794v18.388a8.312 8.312 0 0 1-8.312 8.308z m-28.408-16.624h20.096V437a8.31 8.31 0 0 1 6.412-8.092 71.04 71.04 0 0 0 21.208-8.796 8.314 8.314 0 0 1 10.254 1.188l11.606 11.604 14.21-14.21-11.604-11.604a8.31 8.31 0 0 1-1.188-10.256 71.15 71.15 0 0 0 8.796-21.21 8.314 8.314 0 0 1 8.092-6.408h16.402V349.12h-16.402a8.316 8.316 0 0 1-8.092-6.408 71.046 71.046 0 0 0-8.796-21.21 8.314 8.314 0 0 1 1.188-10.256l11.604-11.604-14.21-14.21-11.606 11.604a8.308 8.308 0 0 1-10.254 1.188 71.12 71.12 0 0 0-21.21-8.796 8.312 8.312 0 0 1-6.41-8.092v-16.4h-20.096v16.402a8.312 8.312 0 0 1-6.41 8.092 71.08 71.08 0 0 0-21.21 8.796 8.312 8.312 0 0 1-10.254-1.188l-11.606-11.604-14.21 14.21 11.604 11.604a8.31 8.31 0 0 1 1.188 10.256 71.048 71.048 0 0 0-8.796 21.208 8.312 8.312 0 0 1-8.092 6.41h-16.402v20.096h16.402a8.314 8.314 0 0 1 8.092 6.41 70.944 70.944 0 0 0 8.796 21.208 8.314 8.314 0 0 1-1.188 10.256l-11.604 11.604 14.21 14.21 11.606-11.604a8.308 8.308 0 0 1 10.254-1.188 71.048 71.048 0 0 0 21.208 8.796 8.314 8.314 0 0 1 6.412 8.092v16.4z m10.048-41.818c-28.898 0-52.412-23.512-52.412-52.41 0-28.898 23.512-52.41 52.412-52.41 28.898 0 52.41 23.512 52.41 52.41s-23.51 52.41-52.41 52.41z m0-88.198c-19.734 0-35.788 16.054-35.788 35.786s16.054 35.786 35.788 35.786c19.732 0 35.786-16.054 35.786-35.786s-16.054-35.786-35.786-35.786z" fill="#4C4372" p-id="15973"></path><path d="M339.48 274.302l23.468 43.578 28.844-43.642 28.844-43.638-52.31 0.062-52.312 0.062z" fill="#FD919E" p-id="15974"></path><path d="M190.168 463.55a8.312 8.312 0 0 1-7.892-10.928c25.4-76.624 78.548-139.91 149.652-178.2a8.314 8.314 0 0 1 7.882 14.636c-67.352 36.27-117.696 96.216-141.754 168.794a8.32 8.32 0 0 1-7.888 5.698z" fill="#4C4372" p-id="15975"></path><path d="M362.948 326.19a8.314 8.314 0 0 1-7.32-4.37l-46.932-87.156a8.31 8.31 0 0 1 7.308-12.252l104.62-0.124h0.01a8.31 8.31 0 0 1 6.934 12.894L369.88 322.46a8.3 8.3 0 0 1-6.932 3.73zM329.92 239.02l16.878 31.342 16.878 31.342 41.488-62.772-75.244 0.088z" fill="#4C4372" p-id="15976"></path></svg>