<?xml version="1.0" standalone="no"?><!DOCTYPE svg PUBLIC "-//W3C//DTD SVG 1.1//EN" "http://www.w3.org/Graphics/SVG/1.1/DTD/svg11.dtd"><svg t="1680881134731" class="icon" viewBox="0 0 1024 1024" version="1.1" xmlns="http://www.w3.org/2000/svg" p-id="35211" xmlns:xlink="http://www.w3.org/1999/xlink" width="200" height="200"><path d="M713.1392 236.98432C681.69216 236.98432 655.36 215.04 655.36 188.70784V80.45568l217.23648 156.52352h-159.45728zM660.48 0H140.43648C62.90432 0 0 66.56 0 148.48v726.30784C0 956.70784 62.90432 1024 140.43648 1024h391.31648l-39.49568-68.75648H140.43648c-40.22784 0-72.41216-35.84-72.41216-80.45568V148.48c0-44.61568 32.18432-80.45568 72.41216-80.45568h446.90432v120.68352c0 64.36864 56.32 117.02784 125.7984 117.02784h169.69728v151.40352h68.02432V209.92L660.48 0z" fill="#3399FF" p-id="35212"></path><path d="M692.224 369.51552H162.37568a34.01216 34.01216 0 0 0-33.94048 34.08384v0.07168c0 18.87232 15.13984 34.15552 33.93536 34.15552h529.92c18.7904-0.08192 33.97632-15.36 33.93536-34.15552a34.07872 34.07872 0 0 0-33.93536-34.15552M501.76 557.34784l-39.49568 68.0192H162.37568c-19.01568 0-34.37568-15.36-34.37568-33.64352 0-19.01568 15.36-34.37568 34.37568-34.37568H501.76zM410.33216 813.34784H162.37568A34.37568 34.37568 0 0 1 128 778.96704c0-19.01568 15.36-33.64352 34.37568-33.64352h230.4l-10.97216 19.01568 28.52864 49.00864z" fill="#3399FF" p-id="35213"></path><path d="M836.75648 950.12352h-202.60352L532.48 773.85216l101.66784-175.5392h202.60352l101.66272 175.5392-101.6576 176.27136z m43.15136-426.42432h-288.91648l-144.82432 250.14784L590.99648 1024h288.91648L1024 773.85216l-144.09216-250.15296z m-83.38432 250.15296c0 33.91488-27.48928 61.40416-61.40416 61.40416-33.90976 0-61.39904-27.48928-61.39904-61.40416 0.01024-33.88928 27.48928-61.35808 61.38368-61.34272 33.87392 0.01024 61.33248 27.4688 61.34272 61.34272" fill="#FC6238" p-id="35214"></path></svg>