<?xml version="1.0" standalone="no"?><!DOCTYPE svg PUBLIC "-//W3C//DTD SVG 1.1//EN" "http://www.w3.org/Graphics/SVG/1.1/DTD/svg11.dtd"><svg t="1700149122923" class="icon" viewBox="0 0 1024 1024" version="1.1" xmlns="http://www.w3.org/2000/svg" p-id="15755" xmlns:xlink="http://www.w3.org/1999/xlink" width="200" height="200"><path d="M499.521829 994.552686a37.112686 37.112686 0 0 1-26.477715-10.620343 35.518171 35.518171 0 0 1-7.314285-40.696686 287.363657 287.363657 0 0 0-61.162058-326.495086 304.669257 304.669257 0 0 0-212.670171-85.825828 311.471543 311.471543 0 0 0-124.167314 25.673143 38.385371 38.385371 0 0 1-41.984-7.080229 35.518171 35.518171 0 0 1-7.314286-40.696686 374.023314 374.023314 0 0 1 76.682971-107.958857 378.88 378.88 0 0 1 265.698743-107.051885h16.427886A529.364114 529.364114 0 0 1 642.018743 67.291429 553.647543 553.647543 0 0 1 842.839771 29.257143a528.910629 528.910629 0 0 1 124.138058 14.145828 35.9424 35.9424 0 0 1 27.384685 26.550858 506.148571 506.148571 0 0 1-142.467657 485.770971 524.785371 524.785371 0 0 1-116.8384 85.825829 364.251429 364.251429 0 0 1-220.891428 348.613485 23.405714 23.405714 0 0 1-14.628572 4.388572zM190.0544 458.371657a377.329371 377.329371 0 0 1 265.640229 107.051886 363.797943 363.797943 0 0 1 104.974628 195.554743 342.879086 342.879086 0 0 1 1.828572 114.102857c3.642514-2.6624 6.392686-6.202514 10.0352-8.777143a287.744 287.744 0 0 0 86.718171-239.908571 34.889143 34.889143 0 0 1 21.006629-36.264229 445.3376 445.3376 0 0 0 119.573942-84.055771 434.658743 434.658743 0 0 0 126.8736-395.498058 442.016914 442.016914 0 0 0-83.982628-7.080228 462.423771 462.423771 0 0 0-324.037486 130.062628 467.748571 467.748571 0 0 0-86.718171 115.902172 37.814857 37.814857 0 0 1-37.434515 19.470628c-10.9568-0.877714-22.820571-1.770057-33.645714-1.770057a300.763429 300.763429 0 0 0-212.6848 85.825829 89.058743 89.058743 0 0 0-9.069714 9.728 238.6944 238.6944 0 0 1 51.112228-4.388572h-0.131657zM139.863771 942.299429a339.382857 339.382857 0 0 1-34.698971-1.770058 38.180571 38.180571 0 0 1-31.9488-30.968685c-0.906971-5.310171-19.163429-138.971429 74.8544-230.941257 44.719543-43.344457 82.154057-62.902857 119.573943-62.902858 44.734171 0 75.761371 30.076343 92.16 46.006858s45.641143 44.2368 47.469714 85.825828c1.828571 37.156571-19.163429 75.205486-64.848457 120.334629-66.618514 64.585143-155.165257 74.327771-202.6496 74.327771z m127.7952-253.908115c-9.069714 0-29.257143 5.310171-66.633142 41.589029a181.935543 181.935543 0 0 0-52.0192 109.714286 192.263314 192.263314 0 0 0-2.735543 30.090971c36.571429-0.892343 98.552686-9.742629 144.223085-53.087086 38.341486-37.156571 43.885714-57.504914 42.9056-65.477485a72.616229 72.616229 0 0 0-25.512228-37.185829c-19.163429-19.470629-30.120229-25.658514-40.199314-25.658514z m471.917715-300.807314a109.714286 109.714286 0 1 1 113.181257-109.714286 111.469714 111.469714 0 0 1-113.152 109.714286z m0-145.978514A37.024914 37.024914 0 0 0 702.186057 277.942857a37.624686 37.624686 0 0 0 37.419886 36.278857A37.054171 37.054171 0 0 0 777.040457 277.942857a36.4544 36.4544 0 0 0-36.571428-36.278857h-0.8192z" fill="#d4237a" p-id="15756"></path></svg>