<?xml version="1.0" standalone="no"?><!DOCTYPE svg PUBLIC "-//W3C//DTD SVG 1.1//EN" "http://www.w3.org/Graphics/SVG/1.1/DTD/svg11.dtd"><svg t="1680881357827" class="icon" viewBox="0 0 1024 1024" version="1.1" xmlns="http://www.w3.org/2000/svg" p-id="41344" xmlns:xlink="http://www.w3.org/1999/xlink" width="200" height="200"><path d="M512 512m-414 0a414 414 0 1 0 828 0 414 414 0 1 0-828 0Z" fill="#F0C48A" p-id="41345"></path><path d="M248.138 274.23h348.34v442.146h-348.34z" fill="#FFFFFF" p-id="41346"></path><path d="M545.58 274.23h50.898v442.146H545.58z" fill="#D3E6F8" p-id="41347"></path><path d="M248.138 274.23h348.34v103.818h-348.34z" fill="#D3E6F8" p-id="41348"></path><path d="M545.58 274.23h50.898v103.818H545.58z" fill="#A4CFF2" p-id="41349"></path><path d="M596.48 725.55H248.14a9.172 9.172 0 0 1-9.172-9.172V274.23a9.172 9.172 0 0 1 9.172-9.172h348.34a9.172 9.172 0 0 1 9.172 9.172v442.146a9.174 9.174 0 0 1-9.172 9.174z m-339.168-18.346h329.994v-423.8H257.312v423.8z" fill="#4C4372" p-id="41350"></path><path d="M596.48 387.222H248.14a9.172 9.172 0 0 1-9.172-9.172v-103.818a9.172 9.172 0 0 1 9.172-9.172h348.34a9.172 9.172 0 0 1 9.172 9.172v103.818a9.172 9.172 0 0 1-9.172 9.172z m-339.168-18.346h329.994v-85.472H257.312v85.472zM545.58 458.542H299.04a9.172 9.172 0 1 1 0-18.344h246.54a9.172 9.172 0 0 1 0 18.344zM422.308 526.49H299.04a9.172 9.172 0 0 1 0-18.344h123.272a9.172 9.172 0 1 1-0.004 18.344zM422.308 594.438H299.04a9.172 9.172 0 0 1 0-18.344h123.272a9.172 9.172 0 1 1-0.004 18.344zM422.308 662.386H299.04a9.172 9.172 0 0 1 0-18.344h123.272a9.172 9.172 0 1 1-0.004 18.344z" fill="#4C4372" p-id="41351"></path><path d="M746.822 674.878v-53.602h-36.078a116.024 116.024 0 0 0-14.336-34.576l25.52-25.52-37.902-37.902-25.52 25.52a116.002 116.002 0 0 0-34.576-14.336v-36.078h-53.602v36.078a116.024 116.024 0 0 0-34.576 14.336l-25.52-25.52-37.902 37.902 25.52 25.52a116.002 116.002 0 0 0-14.336 34.576h-36.078v53.602h36.078a116.024 116.024 0 0 0 14.336 34.576l-25.52 25.52 37.902 37.902 25.52-25.52a116.002 116.002 0 0 0 34.576 14.336v36.078h53.602v-36.078a116.024 116.024 0 0 0 34.576-14.336l25.52 25.52 37.902-37.902-25.52-25.52a116.002 116.002 0 0 0 14.336-34.576h36.078z m-149.694 37.576c-35.554 0-64.376-28.822-64.376-64.376s28.822-64.376 64.376-64.376 64.376 28.822 64.376 64.376c0.002 35.554-28.822 64.376-64.376 64.376z" fill="#FD919E" p-id="41352"></path><path d="M815.86 448.01v-32.232h-21.694a69.78 69.78 0 0 0-8.62-20.79l15.346-15.346-22.792-22.792-15.346 15.346a69.728 69.728 0 0 0-20.79-8.62v-21.694h-32.232v21.694a69.78 69.78 0 0 0-20.79 8.62l-15.346-15.346-22.792 22.792 15.346 15.346a69.728 69.728 0 0 0-8.62 20.79h-21.694v32.232h21.694a69.78 69.78 0 0 0 8.62 20.79l-15.346 15.346 22.792 22.792 15.346-15.346a69.728 69.728 0 0 0 20.79 8.62v21.694h32.232v-21.694a69.78 69.78 0 0 0 20.79-8.62l15.346 15.346 22.792-22.792-15.346-15.346a69.728 69.728 0 0 0 8.62-20.79h21.694z m-90.01 22.596c-21.378 0-38.71-17.332-38.71-38.71s17.33-38.712 38.71-38.712c21.378 0 38.71 17.33 38.71 38.712 0 21.376-17.33 38.71-38.71 38.71z" fill="#E8677D" p-id="41353"></path><path d="M623.93 806.942h-53.602a9.172 9.172 0 0 1-9.172-9.172V768.74a124.814 124.814 0 0 1-23.902-9.912l-20.536 20.536a9.172 9.172 0 0 1-12.972 0l-37.902-37.902a9.172 9.172 0 0 1 0-12.972l20.536-20.536a124.76 124.76 0 0 1-9.912-23.902h-29.03a9.172 9.172 0 0 1-9.172-9.172v-53.602a9.172 9.172 0 0 1 9.172-9.172h29.03a124.942 124.942 0 0 1 9.912-23.902l-20.536-20.536a9.172 9.172 0 0 1 0-12.972l37.902-37.902a9.17 9.17 0 0 1 12.972 0l20.536 20.536a124.89 124.89 0 0 1 23.902-9.912v-29.03a9.172 9.172 0 0 1 9.172-9.172h53.602a9.172 9.172 0 0 1 9.172 9.172v29.03a124.814 124.814 0 0 1 23.902 9.912l20.536-20.536a9.172 9.172 0 0 1 12.972 0l37.902 37.902a9.17 9.17 0 0 1 0 12.972l-20.536 20.536a124.814 124.814 0 0 1 9.912 23.902h29.03a9.172 9.172 0 0 1 9.172 9.172v53.602a9.172 9.172 0 0 1-9.172 9.172h-29.03a125.014 125.014 0 0 1-9.912 23.904l20.536 20.536a9.17 9.17 0 0 1 0 12.972l-37.902 37.902a9.172 9.172 0 0 1-12.972 0l-20.536-20.536a124.76 124.76 0 0 1-23.902 9.912v29.03a9.172 9.172 0 0 1-9.172 9.17z m-44.428-18.346h35.256v-26.906a9.174 9.174 0 0 1 7.074-8.93 106.686 106.686 0 0 0 31.842-13.202 9.172 9.172 0 0 1 11.318 1.312l19.036 19.034 24.93-24.93-19.036-19.034a9.176 9.176 0 0 1-1.312-11.318 106.69 106.69 0 0 0 13.204-31.842 9.176 9.176 0 0 1 8.93-7.076h26.906v-35.256h-26.906a9.174 9.174 0 0 1-8.93-7.076 106.686 106.686 0 0 0-13.202-31.842 9.176 9.176 0 0 1 1.31-11.318l19.036-19.034-24.93-24.93-19.036 19.034a9.176 9.176 0 0 1-11.318 1.312 106.634 106.634 0 0 0-31.842-13.202 9.174 9.174 0 0 1-7.074-8.93v-26.906h-35.256v26.906a9.174 9.174 0 0 1-7.074 8.93 106.728 106.728 0 0 0-31.844 13.202 9.174 9.174 0 0 1-11.318-1.312l-19.034-19.034-24.93 24.93 19.034 19.034a9.176 9.176 0 0 1 1.312 11.318 106.68 106.68 0 0 0-13.204 31.844 9.174 9.174 0 0 1-8.93 7.074h-26.906v35.256h26.906a9.174 9.174 0 0 1 8.93 7.074 106.732 106.732 0 0 0 13.204 31.844 9.176 9.176 0 0 1-1.312 11.318l-19.034 19.034 24.93 24.93 19.034-19.034a9.176 9.176 0 0 1 11.318-1.312 106.624 106.624 0 0 0 31.844 13.202 9.174 9.174 0 0 1 7.074 8.93v26.906z m17.626-66.968c-40.554 0-73.55-32.994-73.55-73.55s32.994-73.55 73.55-73.55 73.55 32.994 73.55 73.55-32.992 73.55-73.55 73.55z m0-128.756c-30.44 0-55.204 24.764-55.204 55.204s24.764 55.204 55.204 55.204 55.204-24.764 55.204-55.204-24.764-55.204-55.204-55.204z" fill="#4C4372" p-id="41354"></path><path d="M741.966 531.078h-32.232a9.172 9.172 0 0 1-9.172-9.172v-14.78a78.472 78.472 0 0 1-10.022-4.156l-10.452 10.454a9.17 9.17 0 0 1-12.972 0l-22.792-22.792a9.17 9.17 0 0 1 0-12.972l10.452-10.454a78.498 78.498 0 0 1-4.156-10.024h-14.78a9.172 9.172 0 0 1-9.172-9.172v-32.232a9.172 9.172 0 0 1 9.172-9.172h14.78a78.618 78.618 0 0 1 4.156-10.024l-10.452-10.454a9.17 9.17 0 0 1 0-12.972l22.792-22.79a9.172 9.172 0 0 1 12.972 0l10.452 10.454a78.712 78.712 0 0 1 10.022-4.156v-14.78a9.172 9.172 0 0 1 9.172-9.172h32.232a9.172 9.172 0 0 1 9.172 9.172v14.78a78.618 78.618 0 0 1 10.024 4.156l10.452-10.454a9.172 9.172 0 0 1 12.972 0l22.792 22.79a9.17 9.17 0 0 1 0 12.972l-10.454 10.454a78.712 78.712 0 0 1 4.156 10.022h14.778a9.172 9.172 0 0 1 9.172 9.172v32.232a9.172 9.172 0 0 1-9.172 9.172h-14.778a78.592 78.592 0 0 1-4.156 10.022l10.454 10.454a9.17 9.17 0 0 1 0 12.972l-22.792 22.792a9.174 9.174 0 0 1-12.972 0l-10.452-10.454a78.618 78.618 0 0 1-10.024 4.156v14.78a9.174 9.174 0 0 1-9.172 9.176z m-23.06-18.346h13.886v-12.52a9.174 9.174 0 0 1 7.074-8.93c6.384-1.5 12.46-4.02 18.058-7.488a9.172 9.172 0 0 1 11.318 1.312l8.86 8.86 9.818-9.818-8.86-8.86a9.174 9.174 0 0 1-1.312-11.316 60.558 60.558 0 0 0 7.488-18.058 9.176 9.176 0 0 1 8.93-7.076h12.52v-13.886h-12.52a9.174 9.174 0 0 1-8.93-7.076 60.558 60.558 0 0 0-7.488-18.058 9.172 9.172 0 0 1 1.312-11.316l8.86-8.86-9.818-9.818-8.86 8.86a9.174 9.174 0 0 1-11.316 1.312 60.514 60.514 0 0 0-18.058-7.488 9.174 9.174 0 0 1-7.074-8.93v-12.52h-13.886v12.52a9.174 9.174 0 0 1-7.074 8.93 60.534 60.534 0 0 0-18.056 7.488 9.174 9.174 0 0 1-11.318-1.312l-8.86-8.86-9.818 9.818 8.86 8.86a9.172 9.172 0 0 1 1.31 11.318 60.476 60.476 0 0 0-7.486 18.056 9.176 9.176 0 0 1-8.93 7.076h-12.52v13.886h12.52a9.174 9.174 0 0 1 8.93 7.076c1.5 6.384 4.02 12.46 7.486 18.056a9.176 9.176 0 0 1-1.31 11.318l-8.86 8.86 9.818 9.818 8.86-8.86a9.176 9.176 0 0 1 11.318-1.312 60.556 60.556 0 0 0 18.056 7.488 9.174 9.174 0 0 1 7.074 8.93l-0.002 12.52z m6.944-32.956c-26.404 0-47.884-21.48-47.884-47.882s21.48-47.884 47.884-47.884c26.402 0 47.882 21.48 47.882 47.884 0 26.402-21.48 47.882-47.882 47.882z m0-77.42c-16.286 0-29.538 13.25-29.538 29.538 0 16.286 13.25 29.536 29.538 29.536s29.536-13.25 29.536-29.536-13.25-29.538-29.536-29.538z" fill="#4C4372" p-id="41355"></path></svg>