<?xml version="1.0" standalone="no"?><!DOCTYPE svg PUBLIC "-//W3C//DTD SVG 1.1//EN" "http://www.w3.org/Graphics/SVG/1.1/DTD/svg11.dtd"><svg t="1700148997425" class="icon" viewBox="0 0 1070 1024" version="1.1" xmlns="http://www.w3.org/2000/svg" p-id="10684" xmlns:xlink="http://www.w3.org/1999/xlink" width="208.984375" height="200"><path d="M534.91112 1024h-18.199616c-145.596924-4.549904-282.09404-65.973606-379.916973-170.621395-93.273029-97.822933-141.04702-227.495193-136.497116-359.442406C11.672175 211.842159 259.641936-8.828178 553.110735 0.271629 700.982611 4.821533 835.204775 66.245235 933.027708 170.893024c93.273029 97.822933 141.04702 227.495193 136.497117 359.442406l-45.499039-2.274952c4.549904-120.572453-38.674183-236.595001-122.847405-325.318127-90.998077-97.822933-213.845482-152.42178-350.342598-156.971683-268.444328-9.099808-493.66457 193.370914-502.764377 450.440483-4.549904 120.572453 38.674183 236.595001 122.847404 325.318127 88.723125 95.547981 213.845482 152.42178 348.067646 156.971683 106.922741 2.274952 211.57053-25.024471 298.018704-84.173221 45.499039-31.849327 86.448174-68.248558 118.2975-111.472645l36.399231 27.299423c-36.399231 47.773991-79.623318 88.723125-129.67226 122.847405-90.998077 59.14875-195.645866 90.998077-307.118511 90.998077z" fill="#46AAFF" p-id="10685"></path><path d="M569.740634 888.845106c-43.155838-0.432241-88.404632-8.781314-131.423973-23.614002l7.416343-21.498295c179.948698 64.38114 375.025826-20.042327 434.94806-187.092047 31.781079-85.310698 23.363756-179.607455-22.590272-262.802448l20.247072-9.873291c49.502954 86.812166 57.101294 190.481726 23.841496 280.092082-50.276438 139.067812-185.658827 224.788001-332.438726 224.765251z" fill="#46AAFF" p-id="10686"></path><path d="M525.083327 296.083629l22.74952-0.113747 1.455969 268.444328-22.749519 0.113748z" fill="#4CADFF" p-id="10687"></path><path d="M528.382008 566.32517l13.649711-18.176866 165.457255 124.439871-13.695211 18.199615z" fill="#4CADFF" p-id="10688"></path></svg>