<?xml version="1.0" standalone="no"?><!DOCTYPE svg PUBLIC "-//W3C//DTD SVG 1.1//EN" "http://www.w3.org/Graphics/SVG/1.1/DTD/svg11.dtd"><svg t="1688102383888" class="icon" viewBox="0 0 1024 1024" version="1.1" xmlns="http://www.w3.org/2000/svg" p-id="5365" xmlns:xlink="http://www.w3.org/1999/xlink" width="200" height="200"><path d="M514.56 947.2a432.64 432.64 0 1 1 432.64-432.64 433.152 433.152 0 0 1-432.64 432.64z m0-812.30336a379.66336 379.66336 0 1 0 379.66336 379.66336A380.09344 380.09344 0 0 0 514.56 134.89664z" fill="#2966C1" p-id="5366"></path><path d="M704.39424 594.8928l-31.55968-18.39616 15.09376-2.7392a26.49088 26.49088 0 0 0-9.46176-52.12672l-76.07296 13.824-38.23104-22.28224 37.9136-21.55008 79.79008 10.96192a26.84416 26.84416 0 0 0 3.6352 0.25088 26.49088 26.49088 0 0 0 3.584-52.736l-11.264-1.536 28.52864-16.22016a26.48576 26.48576 0 0 0-26.17344-46.08l-31.744 18.05824 5.21216-14.4384a26.48576 26.48576 0 1 0-49.82272-17.99168l-26.26048 72.704-41.06752 23.3472V412.73344l50.23232-58.77248a26.48576 26.48576 0 1 0-40.26368-34.42176l-9.96864 11.66336v-28.54912a26.48576 26.48576 0 1 0-52.97152 0v24.83712L476.60544 318.464a26.48576 26.48576 0 1 0-42.05568 32.19968l48.95744 63.9488v51.5328l-45.056-26.2656-25.48224-72.99584a26.48576 26.48576 0 1 0-50.01216 17.45408l5.05856 14.51008-24.66816-14.37696a26.48576 26.48576 0 0 0-26.6752 45.76768l21.4528 12.48768-11.264 1.42336a26.49088 26.49088 0 0 0 3.28704 52.77184 27.648 27.648 0 0 0 3.35872-0.2048l79.90272-10.112 44.5696 25.97888-45.40416 25.81504-75.91424-14.62272a26.49088 26.49088 0 0 0-10.00448 52.00896l15.06304 2.90304-24.82176 14.11072A26.48576 26.48576 0 1 0 343.04 638.85312l21.58592-12.288-4.42368 10.43968a26.49088 26.49088 0 1 0 48.78336 20.6592l31.40096-74.16832 43.10528-24.50432v41.60512l-48.9472 63.97952a26.48576 26.48576 0 1 0 42.0608 32.19968l6.89664-9.0112v32.81408a26.48576 26.48576 0 1 0 52.97152 0V684.032l9.96864 11.66336a26.48576 26.48576 0 1 0 40.26368-34.42176l-50.23232-58.77248v-44.16512l37.6064 21.92384 30.59712 74.50112a26.49088 26.49088 0 0 0 49.00352-20.13184l-4.31104-10.49088 28.34432 16.52224a26.48576 26.48576 0 1 0 26.68032-45.76768z" fill="#FD9A16" p-id="5367"></path></svg>