<?xml version="1.0" standalone="no"?><!DOCTYPE svg PUBLIC "-//W3C//DTD SVG 1.1//EN" "http://www.w3.org/Graphics/SVG/1.1/DTD/svg11.dtd"><svg t="1700149209813" class="icon" viewBox="0 0 1024 1024" version="1.1" xmlns="http://www.w3.org/2000/svg" p-id="17610" xmlns:xlink="http://www.w3.org/1999/xlink" width="200" height="200"><path d="M365.152 768A352.064 352.064 0 0 1 160 448C160 253.6 317.6 96 512 96s352 157.6 352 352c0 141.984-84.064 264.32-205.152 320h139.584l99.776 128H125.76l99.776-128h139.584z" fill="#FFFFFF" p-id="17611"></path><path d="M724.352 768a385.6 385.6 0 0 0 41.632-32h44.384L960 928H64l149.632-192h44.384c13.12 11.584 27.008 22.272 41.632 32H225.6L125.76 896H898.24l-99.776-128h-74.08z" fill="#5D6D7E" p-id="17612"></path><path d="M313.088 514.88c32 18.4 72.736 29.184 72.736 29.184-60.768 52.736-71.552 110.144-72.896 138.176a314.56 314.56 0 0 1-64.96-112.928c0.16-50.432 10.56-103.104 10.56-103.104s27.84 33.344 54.56 48.704zM704 456.512c45.44 82.72-3.456 93.664-45.472 175.168-45.952 89.088-54.56-9.76-54.56-9.76 9.152-184.832-75.008-199.424-99.936-204.32-25.056-4.864-45.504-7.328-45.504-38.944 0-31.616 39.808-42.56 54.56-38.88 14.752 3.584 34.08-49.92-18.24-77.856-52.224-28.032-70.4 23.04-81.728 68.128-11.392 45.024-31.872 32.8-36.448-19.52-4.48-52.288-16.96-12.128-27.232 9.76-10.24 21.888-68.192 48.64-72.704 29.216-2.848-12.192 1.408-39.68 5.024-58.496 52.352-82.24 140.48-136.16 240.384-136.16 108.416 0 202.752 63.616 252.8 157.76 5.12 45.952-16.736 87.328-43.68 95.264-32.96 9.728-27.264 48.64-27.264 48.64zM512 123.584C332.8 123.584 187.52 268.8 187.52 448c0 179.232 145.28 324.512 324.544 324.512 179.168 0 324.48-145.28 324.48-324.512C836.48 268.8 691.2 123.584 512 123.584zM512 800C317.6 800 160 642.368 160 448 160 253.664 317.568 96 512 96c194.4 0 352 157.664 352 352 0 194.368-157.6 352-352 352z" fill="#30AD98" p-id="17613"></path></svg>