<?xml version="1.0" standalone="no"?><!DOCTYPE svg PUBLIC "-//W3C//DTD SVG 1.1//EN" "http://www.w3.org/Graphics/SVG/1.1/DTD/svg11.dtd"><svg t="1700149006729" class="icon" viewBox="0 0 1024 1024" version="1.1" xmlns="http://www.w3.org/2000/svg" p-id="10826" xmlns:xlink="http://www.w3.org/1999/xlink" width="200" height="200"><path d="M649.5232 827.0848c-225.2288 0-407.8592-182.5792-407.8592-407.8592 0-107.5712 41.728-205.3632 109.7728-278.272-145.408 62.3616-247.296 206.7456-247.296 374.9888 0 225.2288 182.6304 407.8592 407.8592 407.8592 117.6576 0 223.6416-49.8688 298.0864-129.5872-49.3056 21.1456-103.5776 32.8704-160.5632 32.8704z" fill="#ffa115" p-id="10827"></path><path d="M919.8592 485.2736c-16.9472 0-30.72 13.7728-30.72 30.72 0 207.9744-169.1648 377.1392-377.1392 377.1392s-377.1392-169.1648-377.1392-377.1392S304.0256 138.8544 512 138.8544c108.032 0 209.7152 46.1312 280.7808 125.3888h-116.0704c-16.9472 0-30.72 13.7728-30.72 30.72s13.7728 30.72 30.72 30.72h188.2624c16.9472 0 30.72-13.7728 30.72-30.72V100.1472c0-16.9472-13.7728-30.72-30.72-30.72s-30.72 13.7728-30.72 30.72v118.272A438.17984 438.17984 0 0 0 512 77.3632c-241.8176 0-438.5792 196.7616-438.5792 438.5792s196.7616 438.5792 438.5792 438.5792 438.5792-196.7616 438.5792-438.5792c0-16.9472-13.7728-30.6688-30.72-30.6688z" fill="#474A54" p-id="10828"></path><path d="M501.76 350.1056v160.7168H289.0752c-16.9472 0-30.72 13.7728-30.72 30.72s13.7728 30.72 30.72 30.72H532.48c16.9472 0 30.72-13.7728 30.72-30.72V350.1056c0-16.9472-13.7728-30.72-30.72-30.72s-30.72 13.7728-30.72 30.72z" fill="#474A54" p-id="10829"></path></svg>