<?xml version="1.0" standalone="no"?><!DOCTYPE svg PUBLIC "-//W3C//DTD SVG 1.1//EN" "http://www.w3.org/Graphics/SVG/1.1/DTD/svg11.dtd"><svg t="1680881108420" class="icon" viewBox="0 0 1024 1024" version="1.1" xmlns="http://www.w3.org/2000/svg" p-id="34012" xmlns:xlink="http://www.w3.org/1999/xlink" width="200" height="200"><path d="M320.137108 164.63941l54.852804 475.390965 109.705607-36.568536 18.284268 329.116822 310.832553-566.812304-274.264018 73.137071 54.852804-292.548286z" fill="#F4AA5C" p-id="34013"></path><path d="M482.501407 1024a34.996089 34.996089 0 0 1-23.952391-31.448941V649.355351l-129.452617 65.274837a46.661452 46.661452 0 0 1-30.351884-0.182843 30.297032 30.297032 0 0 1-13.713201-22.123964L155.578697 39.02649A36.733094 36.733094 0 0 1 160.698292 13.977043L161.429663 13.062829 162.161034 12.148616A26.768168 26.768168 0 0 1 186.661953 0.080999h432.78862a26.658463 26.658463 0 0 1 24.318076 12.067617l0.731371 0.914213 0.914213 0.914214a37.226769 37.226769 0 0 1 5.119595 24.866604l-73.502756 342.464337 249.031728-75.879711a42.657197 42.657197 0 0 1 9.690662-1.279899 35.672607 35.672607 0 0 1 25.96366 11.153403 27.152138 27.152138 0 0 1 2.194112 33.825896L517.607201 1004.435833v0.182843A29.858209 29.858209 0 0 1 489.632271 1024h-7.130864z m24.135233-452.169944a33.240799 33.240799 0 0 1 14.078886 27.609244l0.182843 265.853255L773.586951 386.976107l-231.478831 69.663061h-0.182843a24.427782 24.427782 0 0 1-7.313707 1.097056 46.734589 46.734589 0 0 1-25.23229-8.410763 23.184452 23.184452 0 0 1-8.22792-25.23229l0.182843-0.548528 81.364992-360.748605H223.779016l114.093832 576.685809 135.486425-68.383162a26.932727 26.932727 0 0 1 16.272998-3.108326 50.683991 50.683991 0 0 1 10.970561 2.194112 37.025642 37.025642 0 0 0 6.033808 1.645585z m0 0" fill="#666666" p-id="34014"></path></svg>