<svg t="1660380458180" class="icon" viewBox="0 0 1029 1024" version="1.1" xmlns="http://www.w3.org/2000/svg" p-id="7921" width="200" height="200"><path d="M1024.727025 511.98976c0 282.771945-229.217816 511.98976-511.98976 511.98976-282.766825 0-511.98976-229.217816-511.98976-511.98976 0-282.766825 229.222936-511.98976 511.98976-511.98976 282.771945 0 511.98976 229.222936 511.98976 511.98976" fill="#F7931A" p-id="7922"></path><path d="M637.048379 661.623888a55.842723 55.842723 0 0 1-27.145697 33.417571 55.858083 55.858083 0 0 1-42.827943 4.444071l-144.181437-42.940581 32.122238-107.840403 144.171196 42.945701h0.00512c29.726125 8.852303 46.713946 40.242395 37.856523 69.973641m48.628787-221.00038a55.929761 55.929761 0 0 1 4.438952 42.833063c-8.857423 29.721006-40.262875 46.698586-69.973641 37.861643h-0.00512l-144.176316-42.940582 32.111998-107.840403 144.181436 42.940581a55.888802 55.888802 0 0 1 33.422691 27.145698m64.54143-34.917702c-16.48095-30.458271-43.836563-52.678626-77.01862-62.560029l-19.076738-5.677966 26.705385-89.669887-68.519589-20.407912-26.705386 89.669887-58.49995-17.423012 26.710506-89.669886-16.414392-4.889503-66.49723-19.803763-25.742845 86.434111-81.037739-24.135197-22.870583 76.798464 81.037739 24.140317-83.254655 279.536169-81.037739-24.135197-22.870583 76.803584 81.03262 24.130077-21.723726 72.953421 16.409272 4.889502 66.49723 19.803764 22.691386-76.189196 58.638188 17.463971-22.691387 76.194316 68.243116 20.325993 22.691386-76.194316 19.209856 5.718926a130.255315 130.255315 0 0 0 37.185816 5.452691c21.247575 0 42.295474-5.278614 61.51045-15.677127 30.458271-16.48095 52.673507-43.831443 62.560028-77.023739 10.393392-34.912582 5.263255-70.777464-11.268894-100.298794 30.01284-15.661767 53.927881-42.935461 64.331513-77.863403 9.886522-33.192296 6.251395-68.243115-10.224435-98.696266" fill="#FFFFFF" p-id="7923"></path></svg>
