<svg xmlns="http://www.w3.org/2000/svg" viewBox="0 0 26 38" class="tcIcon_logo">
  <defs>
    <linearGradient x1="63.932%" y1="-9.429%" x2="50.275%" y2="97.473%" id="a">
      <stop stop-color="#FFF" offset="0%"></stop>
      <stop stop-color="#3269FF" offset="100%"></stop>
    </linearGradient>
    <linearGradient x1="69.847%" y1="-9.43%" x2="50.392%" y2="97.473%" id="b">
      <stop stop-color="#FFF" offset="0%"></stop>
      <stop stop-color="#3269FF" offset="100%"></stop>
    </linearGradient>
  </defs>
  <g fill="none">
    <path
      d="M0 10.498a2.722 2.722 0 012.722-2.722h19.18a2.722 2.722 0 012.722 2.722v18.035a2.722 2.722 0 01-2.722 2.721H6.347l-4.409 5.5A1.089 1.089 0 010 36.074V10.497z"
      fill="#2378FF"></path>
    <path
      d="M11.068 14.304c4.428-5.018 8.343-9.72 11.746-14.106.872-1.193.54 3.331-.29 4.812-.83 1.48-2.657 5.017-8.675 8.923-4.012 2.605-4.939 2.728-2.78.37z"
      fill="url(#a)"></path>
    <path
      d="M25.069 4.574a14.36 14.36 0 01-2.246 4.498H17.28c3.03-2.924 6.38-6.326 8.26-8.463a1.4 1.4 0 01.028-.032l.015-.016c.252-.26.817-.583-.514 4.013z"
      fill="url(#b)"></path>
    <path
      d="M25.056 4.263c-1.656 4.842-5.795 9.047-10.39 10.024 0 0 2.11.892 2.608 1.996.318.71 1.49 1.893 3.515 3.553.05.04 1.396.603 4.04 1.687v7.564a2.45 2.45 0 01-2.45 2.449H16.68l-2.967-6.502c-.717-.68-1.504-1.02-2.36-1.02-.272 0-.6.01-.96.011h-.155c-1.314-.005-2.984-.149-3.893-1.243-.8-.962-1.187-1.713-1.16-2.25.635-.794 1.022-1.46 1.16-1.997.207-.807 1.655-2.719 2.649-3.271s1.16-.85 1.946-.85S21.536 4.586 25.305.143c.211-.249 1.407-.722-.249 4.12z"
      fill="#FFF"></path>
    <path fill="#2378FF" d="M10.152 17.28a1.08 1.08 0 100 2.16 1.08 1.08 0 100-2.16z"></path>
  </g>
</svg>
