<svg width="39.99999999999999" height="39.99999999999999" xmlns="http://www.w3.org/2000/svg" fill="none">

  <g>
    <title>Layer 1</title>
    <path stroke="null" id="svg_1" fill="#DE0629"
      d="m25.8161,11.23412c3.1283,-0.62188 6.289,1.02195 7.4769,3.90537c3.8303,0.93748 6.6652,4.29621 6.6652,8.29921c0,4.7272 -3.954,8.5613 -8.8394,8.5613c-3.6835,0 -6.8393,-2.1815 -8.165,-5.2824c-0.4082,-0.942 -0.6422,-1.9726 -0.6652,-3.0523l-2.2362,0c-0.1551,0 -0.2327,-0.1816 -0.1231,-0.2878l4.5489,-4.4058c0.085,-0.0824 0.2226,-0.0824 0.3077,-0.0001l4.5529,4.4059c0.1096,0.106 0.032,0.2878 -0.1231,0.2878l-2.3618,0c0.0777,0.541 0.2516,1.0778 0.5398,1.585c1.2898,2.269 4.2652,3.0689 6.5849,1.7421c2.0257,-1.1585 2.8815,-3.668 1.9562,-5.7627c-0.9682,-2.1925 -3.42,-3.2256 -5.6375,-2.6381c0.4599,-1.43004 -0.1563,-3.02483 -1.5596,-3.78581c-1.4032,-0.76098 -3.1289,-0.43583 -4.1471,0.69143l-0.0017,-0.00022c-1.1308,-2.60643 -3.9347,-4.28887 -6.9783,-3.94003c-3.285,0.37637 -5.728,2.9964 -5.9118,6.08759c-1.6388,-0.85323 -3.7092,-0.87605 -5.45839,0.21797c-1.94672,1.21777 -2.86605,3.58657 -2.22239,5.74297c0.70312,2.3563 2.87205,3.7676 5.15084,3.7682l11.91024,0c0.0908,0 0.1718,0.053 0.2075,0.1339c0.5572,1.262 1.3644,2.3954 2.3625,3.3407c0.0885,0.0839 0.0302,0.2274 -0.0936,0.2274l-14.37905,0c-0.00385,0 -0.00759,0.0003 -0.01144,0.0003c-5.05956,0 -9.16501,-3.9764 -9.16501,-8.8769c0,-4.90481 4.10545,-8.87665 9.16501,-8.87665l0.01371,0c1.70648,-3.16337 5.12838,-5.32245 9.06858,-5.32245c3.0001,0 5.6973,1.24826 7.5688,3.23412zm57.8878,2.97339l15.7756,0l0,-1.47423l-15.7756,0l0,1.47423zm-27.3768,4.25349l0,-4.25337l6.5797,0l0,-1.47423l-15.7758,0l0,1.47423l6.5795,0l0,4.25107l-0.0005,0.0143l-7.0992,0l0,1.4744l6.9134,0c-0.4584,2.1309 -1.9767,5.1172 -6.9134,6.4221l0,1.5249c4.8289,-0.7064 7.2206,-3.1914 8.408,-5.5028c1.1877,2.3114 3.5795,4.7964 8.4083,5.5028l0,-1.5249c-4.9366,-1.3049 -6.4551,-4.2912 -6.9136,-6.4221l6.9136,0l0,-1.4744l-7.0993,0l-0.0002,-0.0033l-0.0005,-0.0087zm43.6729,-0.1506l0,1.4741l-11.438,0l-2.2622,6.4698l5.0085,0l1.0071,0l4.9558,0l-1.7185,-4.3405l2.2939,0l1.576,3.9807c0.1848,0.4662 0.1206,0.9907 -0.1717,1.4021c-0.2922,0.412 -0.7745,0.6578 -1.2906,0.6578l-5.6449,0l-1.0071,0l-5.6863,0c-0.5036,0 -0.9793,-0.2366 -1.2726,-0.6328c-0.2935,-0.3962 -0.3723,-0.9085 -0.2109,-1.3704l2.156,-6.1667l-3.1109,0l0,-1.4741l16.8164,0zm-29.121,6.2544l4.9704,0l0,-0.8318l-4.9704,0l0,0.8318zm0,-1.8235l4.9704,0l0,-0.8319l-4.9704,0l0,0.8319zm-3.5887,-1.7699l5.1069,0l0,-0.7746l-5.1069,0l0,0.7746zm0,-1.525l5.1069,0l0,-0.7745l-5.1069,0l0,0.7745zm7.0411,0l5.1068,0l0,-0.7745l-5.1068,0l0,0.7745zm0,1.525l5.1068,0l0,-0.7746l-5.1068,0l0,0.7746zm3.8109,4.5852l3.4059,0l0,-0.9918l-3.5045,0l0,-0.8318l3.5045,0l0,-0.9917l-3.5045,0l0,-0.8319l1.3945,0l0.6671,0l0.6402,0c0.3462,0 0.6267,-0.2717 0.6267,-0.6069l0,-2.9615c0,-0.3354 -0.2805,-0.60711 -0.6267,-0.60711l-0.6402,0l-0.6671,0l-12.1479,0l-0.3152,0l-0.9921,0c-0.3461,0 -0.6268,0.27171 -0.6268,0.60711l0,2.9615c0,0.3352 0.2807,0.6069 0.6268,0.6069l0.9921,0l0.3152,0l1.3945,0l0,0.8319l-3.5046,0l0,0.9917l3.5046,0l0,0.8318l-3.5046,0l0,0.9918l3.4061,0c-0.2019,0.5193 -0.8817,1.0574 -1.8416,1.2085c-0.4947,0.078 -0.9043,0.1183 -1.5816,0.1331l0,1.064c1.0783,0 1.9725,-0.0734 2.8136,-0.2304c1.3992,-0.261 2.4273,-1.0937 2.7738,-2.1752l5.2272,0c0.3466,1.0815 1.3747,1.9142 2.774,2.1752c0.841,0.157 1.7353,0.2304 2.8135,0.2304l0,-1.064c-0.6772,-0.0148 -1.0868,-0.0551 -1.5816,-0.1331c-0.9598,-0.1511 -1.6396,-0.6892 -1.8413,-1.2085zm-6.508,-8.55946l-0.191,0l-0.4226,0l-5.8029,0l0,-0.95054l5.4258,0c0.2083,0 0.3771,-0.16345 0.3771,-0.36507l0,-0.4411l-5.4534,0l0,-0.75045l5.4534,0l0,-0.44109c0,-0.20163 -0.1688,-0.36519 -0.3771,-0.36519l-5.4258,0l0,-0.95042l5.8029,0l0.4226,0l0.191,0c0.7293,0 1.3205,0.57262 1.3205,1.27908l0,1.7058c0,0.70635 -0.5912,1.27898 -1.3205,1.27898zm8.3647,0l0.1911,0c0.7291,0 1.3204,-0.57263 1.3204,-1.27898l0,-1.7058c0,-0.70646 -0.5913,-1.27908 -1.3204,-1.27908l-0.1911,0l-0.4226,0l-5.803,0l0,0.95042l5.4259,0c0.2083,0 0.3771,0.16356 0.3771,0.36519l0,0.44109l-5.4534,0l0,0.75045l5.4534,0l0,0.4411c0,0.20162 -0.1688,0.36507 -0.3771,0.36507l-5.4259,0l0,0.95054l5.803,0l0.4226,0z"
      clip-rule="evenodd" fill-rule="evenodd" />
  </g>
</svg>
