<svg width="164" height="164" viewBox="0 0 164 164" fill="none" xmlns="http://www.w3.org/2000/svg">
  <g clip-path="url(#clip0_1107_2273)">
    <path fill-rule="evenodd" clip-rule="evenodd"
      d="M41.3266 63.3255L41.3266 63.3247L41.3266 63.3272C41.3267 63.3336 41.3269 63.3461 41.3275 63.3647C41.3285 63.4017 41.3308 63.4624 41.3357 63.5452C41.3455 63.7107 41.3658 63.964 41.4076 64.2914C41.4912 64.9467 41.6607 65.8957 42.0035 67.0311C42.6885 69.3001 44.0635 72.308 46.8298 75.2174C49.5692 78.0984 52.5463 79.4593 54.8315 80.1034C55.9759 80.426 56.945 80.5682 57.6189 80.6299C57.9555 80.6608 58.2171 80.6714 58.3886 80.6746C58.4743 80.6762 58.5374 80.676 58.5759 80.6754C58.586 80.6753 58.5945 80.6751 58.6012 80.675C58.6071 80.6749 58.6117 80.6747 58.6148 80.6747L58.6165 80.6746L58.6196 80.6745C59.3399 80.6453 59.952 81.1967 59.9973 81.9166C60.0427 82.6371 59.5037 83.2614 58.7846 83.3219L58.7836 83.322L58.7821 83.3221L58.777 83.3226C58.7731 83.323 58.7677 83.3235 58.7609 83.3242C58.7535 83.3249 58.7445 83.3258 58.7338 83.3269C58.6925 83.3313 58.6268 83.3387 58.5385 83.3501C58.3619 83.373 58.0951 83.4121 57.7531 83.4753C57.0684 83.6017 56.0857 83.8242 54.9223 84.2051C52.5916 84.9682 49.5649 86.3577 46.7498 88.86C44.0054 91.2994 42.6453 94.2519 41.9717 96.6233C41.6354 97.8071 41.4739 98.8344 41.3966 99.5595C41.358 99.9214 41.3406 100.206 41.3328 100.396C41.3288 100.49 41.3273 100.561 41.3268 100.605C41.3265 100.627 41.3265 100.642 41.3265 100.651V100.656L41.3265 100.658C41.3348 101.39 40.7495 101.99 40.0179 102C39.2861 102.01 38.6847 101.425 38.6736 100.694L38.6735 100.693L38.6735 100.692L38.6735 100.691L38.6735 100.69L38.6734 100.686C38.6731 100.677 38.6727 100.661 38.6718 100.639C38.6701 100.594 38.6668 100.522 38.6606 100.427C38.6482 100.236 38.6241 99.9496 38.578 99.5856C38.4856 98.8566 38.3055 97.8244 37.9558 96.635C37.2545 94.2499 35.8882 91.2874 33.2333 88.8447C30.5286 86.3562 27.5131 84.9698 25.1573 84.2063C23.9823 83.8255 22.9811 83.6029 22.2803 83.4762C21.9302 83.4128 21.6561 83.3737 21.474 83.3506C21.383 83.3391 21.315 83.3317 21.2721 83.3273C21.2507 83.3251 21.2356 83.3237 21.227 83.3229L21.221 83.3224L21.2202 83.3223C20.5149 83.2652 19.9779 82.6646 20.0007 81.9573C20.0235 81.2508 20.596 80.6866 21.3022 80.6736L21.3041 80.6736L21.3048 80.6736L21.3069 80.6735C21.3133 80.6733 21.3258 80.6729 21.3443 80.6721C21.3813 80.6705 21.4419 80.6673 21.5244 80.6611C21.6895 80.6488 21.9419 80.6246 22.2676 80.5778C22.9195 80.4841 23.8617 80.3002 24.984 79.94C27.2267 79.2204 30.1821 77.8002 32.9911 74.9911C35.8002 72.1821 37.2204 69.2267 37.94 66.984C38.3001 65.8617 38.4841 64.9195 38.5778 64.2676C38.6246 63.9419 38.6487 63.6895 38.6611 63.5244C38.6673 63.4419 38.6705 63.3813 38.6721 63.3443C38.6729 63.3258 38.6733 63.3133 38.6735 63.3069L38.6736 63.3044L38.6736 63.3053L38.6736 63.3022C38.6869 62.5755 39.2828 61.9945 40.0101 62C40.7374 62.0056 41.3244 62.5957 41.3266 63.3225L41.3266 63.3247M41.3266 63.3247L41.3266 63.3255Z"
      fill="#505050" />
    <path fill-rule="evenodd" clip-rule="evenodd"
      d="M125.327 63.3255L125.327 63.3247L125.327 63.3272C125.327 63.3336 125.327 63.3461 125.327 63.3647C125.329 63.4017 125.331 63.4624 125.336 63.5452C125.346 63.7107 125.366 63.964 125.408 64.2914C125.491 64.9467 125.661 65.8957 126.004 67.0311C126.689 69.3001 128.063 72.308 130.83 75.2174C133.569 78.0984 136.546 79.4593 138.832 80.1034C139.976 80.426 140.945 80.5682 141.619 80.6299C141.955 80.6608 142.217 80.6714 142.389 80.6746C142.474 80.6762 142.537 80.676 142.576 80.6754C142.586 80.6753 142.594 80.6751 142.601 80.675C142.607 80.6749 142.612 80.6747 142.615 80.6747L142.616 80.6746L142.62 80.6745C143.34 80.6453 143.952 81.1967 143.997 81.9166C144.043 82.6371 143.504 83.2614 142.785 83.3219L142.784 83.322L142.782 83.3221L142.777 83.3226C142.773 83.323 142.768 83.3235 142.761 83.3242C142.754 83.3249 142.744 83.3258 142.734 83.3269C142.693 83.3313 142.627 83.3387 142.539 83.3501C142.362 83.373 142.095 83.4121 141.753 83.4753C141.068 83.6017 140.086 83.8242 138.922 84.2051C136.592 84.9682 133.565 86.3577 130.75 88.86C128.005 91.2994 126.645 94.2519 125.972 96.6233C125.635 97.8071 125.474 98.8344 125.397 99.5595C125.358 99.9214 125.341 100.206 125.333 100.396C125.329 100.49 125.327 100.561 125.327 100.605C125.327 100.627 125.326 100.642 125.326 100.651V100.656L125.326 100.658C125.335 101.39 124.75 101.99 124.018 102C123.286 102.01 122.685 101.425 122.674 100.694L122.674 100.693L122.674 100.692L122.674 100.691L122.674 100.69L122.673 100.686C122.673 100.677 122.673 100.661 122.672 100.639C122.67 100.594 122.667 100.522 122.661 100.427C122.648 100.236 122.624 99.9496 122.578 99.5856C122.486 98.8566 122.305 97.8244 121.956 96.635C121.255 94.2499 119.888 91.2874 117.233 88.8447C114.529 86.3562 111.513 84.9698 109.157 84.2063C107.982 83.8255 106.981 83.6029 106.28 83.4762C105.93 83.4128 105.656 83.3737 105.474 83.3506C105.383 83.3391 105.315 83.3317 105.272 83.3273C105.251 83.3251 105.236 83.3237 105.227 83.3229L105.221 83.3224L105.22 83.3223C104.515 83.2652 103.978 82.6646 104.001 81.9573C104.023 81.2508 104.596 80.6866 105.302 80.6736L105.304 80.6736L105.305 80.6736L105.307 80.6735C105.313 80.6733 105.326 80.6729 105.344 80.6721C105.381 80.6705 105.442 80.6673 105.524 80.6611C105.689 80.6488 105.942 80.6246 106.268 80.5778C106.919 80.4841 107.862 80.3002 108.984 79.94C111.227 79.2204 114.182 77.8002 116.991 74.9911C119.8 72.1821 121.22 69.2267 121.94 66.984C122.3 65.8617 122.484 64.9195 122.578 64.2676C122.625 63.9419 122.649 63.6895 122.661 63.5244C122.667 63.4419 122.67 63.3813 122.672 63.3443C122.673 63.3258 122.673 63.3133 122.673 63.3069L122.674 63.3044L122.674 63.3053L122.674 63.3022C122.687 62.5755 123.283 61.9945 124.01 62C124.737 62.0056 125.324 62.5957 125.327 63.3225L125.327 63.3247M125.327 63.3247L125.327 63.3255Z"
      fill="#505050" />
    <path fill-rule="evenodd" clip-rule="evenodd"
      d="M84.3215 49.3197L84.3215 49.3183L84.3216 49.3225C84.3217 49.3338 84.3221 49.3558 84.3231 49.3881C84.3249 49.4529 84.3289 49.5592 84.3375 49.7041C84.3547 49.9938 84.3901 50.437 84.4633 51.01C84.6097 52.1568 84.9063 53.8175 85.5061 55.8045C86.705 59.7752 89.1111 65.039 93.9522 70.1305C98.746 75.1723 103.956 77.5537 107.955 78.681C109.958 79.2455 111.654 79.4943 112.833 79.6024C113.422 79.6563 113.88 79.675 114.18 79.6806C114.33 79.6834 114.44 79.6829 114.508 79.682C114.526 79.6818 114.54 79.6815 114.552 79.6812C114.562 79.681 114.57 79.6808 114.576 79.6806L114.579 79.6806L114.584 79.6804C115.845 79.6292 116.916 80.5943 116.995 81.8541C117.075 83.1149 116.131 84.2075 114.873 84.3134L114.871 84.3135L114.869 84.3137L114.86 84.3146C114.853 84.3152 114.844 84.3161 114.832 84.3173C114.819 84.3186 114.803 84.3202 114.784 84.3221C114.712 84.3297 114.597 84.3427 114.442 84.3627C114.133 84.4027 113.666 84.4711 113.068 84.5817C111.87 84.803 110.15 85.1923 108.114 85.8589C104.035 87.1943 98.7386 89.6259 93.8121 94.005C89.0095 98.274 86.6293 103.441 85.4505 107.591C84.862 109.662 84.5793 111.46 84.444 112.729C84.3764 113.363 84.346 113.861 84.3323 114.192C84.3255 114.358 84.3229 114.481 84.3219 114.558C84.3214 114.597 84.3213 114.624 84.3213 114.639V114.649L84.3214 114.652C84.336 115.932 83.3117 116.983 82.0313 117C80.7507 117.017 79.6983 115.994 79.6787 114.714L79.6787 114.713L79.6787 114.711L79.6787 114.71L79.6786 114.708L79.6784 114.7C79.678 114.684 79.6772 114.657 79.6757 114.618C79.6727 114.539 79.6669 114.414 79.656 114.247C79.6343 113.913 79.5922 113.412 79.5115 112.775C79.3498 111.499 79.0346 109.693 78.4226 107.611C77.1954 103.437 74.8043 98.253 70.1583 93.9783C65.4251 89.6234 60.1479 87.1971 56.0253 85.8611C53.969 85.1947 52.217 84.8051 50.9905 84.5833C50.3778 84.4725 49.8982 84.4039 49.5795 84.3636C49.4202 84.3435 49.3013 84.3305 49.2263 84.3228C49.1888 84.319 49.1622 84.3165 49.1472 84.3151L49.1367 84.3142L49.1353 84.314C47.9011 84.2142 46.9613 83.163 47.0012 81.9252C47.0411 80.689 48.043 79.7015 49.2789 79.6789L49.2822 79.6788L49.2834 79.6788L49.2871 79.6786C49.2983 79.6783 49.3202 79.6776 49.3526 79.6762C49.4172 79.6733 49.5233 79.6677 49.6677 79.6569C49.9566 79.6353 50.3983 79.5931 50.9683 79.5112C52.1091 79.3472 53.7579 79.0253 55.7219 78.3951C59.6467 77.1358 64.8187 74.6503 69.7345 69.7345C74.6503 64.8187 77.1358 59.6467 78.3951 55.7219C79.0252 53.7579 79.3472 52.1091 79.5112 50.9682C79.5931 50.3983 79.6353 49.9566 79.6569 49.6677C79.6677 49.5233 79.6733 49.4172 79.6761 49.3525C79.6776 49.3202 79.6783 49.2983 79.6786 49.2871L79.6788 49.2826L79.6787 49.2842L79.6788 49.2789C79.7021 48.0072 80.7449 46.9904 82.0177 47.0001C83.2905 47.0098 84.3177 48.0424 84.3215 49.3144L84.3215 49.3183M84.3215 49.3183L84.3215 49.3197Z"
      fill="#2D2D2D" />
  </g>
  <defs>
    <clipPath id="clip0_1107_2273">
      <rect width="164" height="164" fill="white" />
    </clipPath>
  </defs>
</svg>
